<svg width="25" height="24" viewBox="0 0 25 24" fill="none" xmlns="http://www.w3.org/2000/svg">
<path d="M9.33142 14.25C9.33142 16.17 10.9114 17.75 12.8314 17.75C14.7514 17.75 16.3314 16.17 16.3314 14.25" stroke="#202020" stroke-width="1.5" stroke-miterlimit="10" stroke-linecap="round" stroke-linejoin="round"/>
<path d="M9.64142 2L6.02142 5.63" stroke="#202020" stroke-width="1.5" stroke-miterlimit="10" stroke-linecap="round" stroke-linejoin="round"/>
<path d="M16.0214 2L19.6414 5.63" stroke="#202020" stroke-width="1.5" stroke-miterlimit="10" stroke-linecap="round" stroke-linejoin="round"/>
<path d="M2.83142 7.85C2.83142 6 3.82142 5.85 5.05142 5.85H20.6114C21.8414 5.85 22.8314 6 22.8314 7.85C22.8314 10 21.8414 9.85 20.6114 9.85H5.05142C3.82142 9.85 2.83142 10 2.83142 7.85Z" stroke="#202020" stroke-width="1.5"/>
<path d="M4.33142 10L5.74142 18.64C6.06142 20.58 6.83142 22 9.69142 22H15.7214C18.8314 22 19.2914 20.64 19.6514 18.76L21.3314 10" stroke="#202020" stroke-width="1.5" stroke-linecap="round"/>
</svg>
